<svg width="48" height="60" viewBox="0 0 48 60" fill="none" xmlns="http://www.w3.org/2000/svg">
<path d="M16 59H32" stroke="white" stroke-width="2" stroke-linecap="round"/>
<path d="M24 59V38" stroke="white" stroke-width="2" stroke-linecap="round"/>
<path d="M23.9999 1C30.9609 1 34.4414 1 37.1636 2.61138C37.9527 3.07849 38.6824 3.63776 39.337 4.27717C41.5955 6.48283 42.47 9.82051 44.2191 16.4959L44.461 17.4194C46.8393 26.4947 48.0283 31.0323 45.8683 34.22C45.6532 34.5382 45.4162 34.8413 45.1596 35.1279C42.588 38 37.8565 38 28.3931 38H19.607C10.1435 38 5.41184 38 2.84017 35.1279C2.58367 34.8413 2.34691 34.5382 2.13151 34.22C-0.0282107 31.0323 1.16081 26.4947 3.5388 17.4194L3.7808 16.4959C5.52996 9.82051 6.40457 6.48283 8.6628 4.27717C9.31745 3.63776 10.0472 3.07849 10.8363 2.61138C11.3596 2.30163 11.9109 2.05143 12.5096 1.84932" stroke="white" stroke-width="2" stroke-linecap="round"/>
<path d="M40 38V45" stroke="white" stroke-width="2" stroke-linecap="round"/>
</svg>
