<svg xmlns="http://www.w3.org/2000/svg" xmlns:xlink="http://www.w3.org/1999/xlink" width="1024" zoomAndPan="magnify" viewBox="0 0 768 767.999994" height="1024" preserveAspectRatio="xMidYMid meet" version="1.0"><defs><clipPath id="cf076d0036"><path d="M 127 65.359375 L 641 65.359375 L 641 702.859375 L 127 702.859375 Z M 127 65.359375 " clip-rule="nonzero"/></clipPath></defs><g clip-path="url(#cf076d0036)"><path fill="#ffffff" d="M 639.550781 386.09375 C 633.363281 368.519531 534.40625 87.605469 529.519531 73.730469 C 527.757812 68.730469 523.035156 65.386719 517.734375 65.386719 L 266.230469 65.386719 C 261.132812 65.386719 256.546875 68.484375 254.640625 73.214844 L 128.890625 385.578125 C 125.585938 393.785156 131.640625 402.738281 140.480469 402.738281 C 158.0625 402.738281 313 402.738281 340.390625 402.738281 L 340.390625 627.640625 L 334.144531 627.640625 C 303.140625 627.640625 277.917969 652.863281 277.917969 683.863281 L 277.917969 690.113281 C 277.917969 697.011719 283.515625 702.605469 290.414062 702.605469 L 477.832031 702.605469 C 484.730469 702.605469 490.328125 697.011719 490.328125 690.113281 L 490.328125 683.863281 C 490.328125 652.863281 465.105469 627.640625 434.101562 627.640625 L 427.855469 627.640625 L 427.855469 402.738281 C 469.933594 402.738281 499.007812 402.738281 540.304688 402.738281 L 540.304688 517.339844 C 525.761719 522.496094 515.316406 536.382812 515.316406 552.671875 C 515.316406 573.339844 532.128906 590.15625 552.800781 590.15625 C 573.46875 590.15625 590.28125 573.339844 590.28125 552.671875 C 590.28125 536.386719 579.835938 522.496094 565.292969 517.339844 L 565.292969 402.738281 L 627.765625 402.738281 C 636.386719 402.738281 642.410156 394.203125 639.550781 386.09375 Z M 552.800781 565.167969 C 545.910156 565.167969 540.304688 559.5625 540.304688 552.671875 C 540.304688 545.78125 545.910156 540.179688 552.800781 540.179688 C 559.6875 540.179688 565.292969 545.78125 565.292969 552.671875 C 565.292969 559.5625 559.6875 565.167969 552.800781 565.167969 Z M 274.667969 90.375 L 508.886719 90.375 L 530.894531 152.847656 L 249.519531 152.847656 Z M 239.460938 177.835938 L 310.660156 177.835938 L 279.707031 377.75 L 158.980469 377.75 Z M 464.710938 677.617188 L 303.535156 677.617188 C 306.4375 663.378906 319.058594 652.628906 334.144531 652.628906 C 358.132812 652.628906 412.65625 652.628906 434.101562 652.628906 C 449.1875 652.628906 461.808594 663.378906 464.710938 677.617188 Z M 402.863281 627.640625 L 365.382812 627.640625 L 365.382812 402.738281 L 402.863281 402.738281 Z M 304.992188 377.75 L 335.945312 177.835938 L 436.445312 177.835938 L 463.53125 377.75 C 444.335938 377.75 321.742188 377.75 304.992188 377.75 Z M 488.746094 377.75 L 461.660156 177.835938 L 539.695312 177.835938 L 610.117188 377.75 Z M 488.746094 377.75 " fill-opacity="1" fill-rule="nonzero"/></g></svg>